<?xml version="1.0" encoding="utf-8"?>
<!-- Generator: Adobe Illustrator 19.0.0, SVG Export Plug-In . SVG Version: 6.00 Build 0)  -->
<svg version="1.1" id="Layer_1" xmlns="http://www.w3.org/2000/svg" xmlns:xlink="http://www.w3.org/1999/xlink" x="0px" y="0px"
	 viewBox="0 0 1000 1000" style="enable-background:new 0 0 1000 1000;" xml:space="preserve">
<style type="text/css">
	.st0{fill:#073C4C;}
	.st1{fill:#00D7FD;}
	.st2{fill:#00D6FB;}
	.st3{fill:#00A0BD;}
	.st4{fill:#F7F9F9;}
	.st5{fill:#FDFDFD;}
</style>
<g>
	<path class="st0" d="M310.1,842.2c-7.2-4.3-15.6-3.9-23.3-6.2c-48.4-14.3-79.6-47.1-100.1-91.7c-8.5-18.6-15.5-37.9-25.3-55.9
		c-3.7-6.7-7.6-13.3-11.7-19.7c-10.9-17-25.2-26.6-46.6-24.4c-14.6,1.5-29.4,0.8-44.1,0.4C27.9,644,3.7,619.8,4.6,590.8
		c0.3-11.4,8-20.7,19.2-20.6c38.6,0.2,77.1-1.9,115.7,1.3c12.3,1,24,4.5,35.5,8.8c0.7,0.1,1.9,0.6,2.1,0.3c0.4-0.5-0.2-1.1-1-1.6
		c-17.5-17.2-39.4-24.9-63-29.1c-11.8-2.1-23.3-4.9-34.1-10.4c-20.8-10.6-31.1-27.9-32.1-50.8c-0.4-9.5,4.3-17.1,11.5-23
		c3.6-2.9,7.9-5,12.8-3.7c35.2,9.1,70.5,17.8,105.5,27.7c22.7,6.4,42.2,19.2,59.5,35.5c-4.2-17.7-13.7-32-27.2-43.9
		c-10.1-8.9-21.8-14.5-34.7-18c-20.1-5.5-40-11.4-58.9-20.2c-21.4-10-31.8-28.5-29.6-52c1.2-12.8,12.2-21.4,24.3-18.3
		c32,8.2,64.2,15.8,95.7,25.4c65.7,20.1,101.2,67.5,113.1,132.9c8.7,47.5,13.8,95.7,20.6,143.6c1.6,11.3,4.1,22.3,9.9,32.2
		c3.8,6.5,8.7,11.8,16.1,14.3c11.9,4,19.1,1.4,25.3-9.3c6.8-11.8,10.5-24.7,12.9-38c0.6-3.2,1.6-6.8-1-9.7c-7.1-8-7.4-17.8-7.3-27.7
		c0-3.4-0.3-6.8,0.1-10.1c1.4-14.4-0.8-25-15.2-34.6C356,575.5,352,542.8,367.6,518c2.5-3.9,3.5-5.8-0.8-9.4
		c-17.4-14.3-28-33.4-28.4-55.6c-0.9-50.5-3.9-101.2,1.4-151.6c7.1-68.1,64.8-126.3,132.4-136.6c3.6-0.6,8,0.2,10.8-3.3
		c9.8,0,19.6,0,29.4,0c6.5,3.8,13.9,2.7,20.9,4.4c76.1,17.7,127.1,80.5,128,158.6c0.5,40.2,0.3,80.3,0,120.5
		c-0.2,26.2-9.9,48.3-30.5,65c-2.9,2.3-4.2,3.6-1.7,7.8c17.8,29.9,9.4,62.3-20.6,80.7c-2.7,1.7-4.9,3-5,6.8
		c-0.4,18.3-0.7,36.6-2,54.9c-1.3,17.8,4.7,35.6,13.9,51.6c6.4,11.1,13.9,13.7,26.1,9.3c7-2.6,11.7-7.7,15.3-13.9
		c5.9-9.9,8.4-20.9,10-32.2c6.8-47.9,12-96.1,20.6-143.6c12-66.3,48.3-113.7,114.7-133.7c30.7-9.3,62-16.6,93.1-24.6
		c12.9-3.3,24,4.8,25.3,18c2.3,23.5-8.1,42-29.5,52.1c-18.9,8.9-38.8,14.8-58.9,20.3c-12.9,3.5-24.7,9.1-34.7,18
		c-13.5,11.9-23.1,26.3-27.3,44c17.3-16.3,36.7-29.1,59.4-35.6c35-9.9,70.3-18.6,105.5-27.7c4.9-1.3,9.2,0.7,12.8,3.6
		c7.3,5.8,11.9,13.5,11.6,23c-1,23.4-11.7,40.7-32.9,51.2c-10.5,5.2-21.8,7.9-33.3,9.9c-23.6,4.1-45.5,11.9-63,29.1
		c-1,0.4-2,0.7-3,1.1c1.3,1.9,2.7,1,4.1,0.3c11.2-4.1,22.5-7.5,34.5-8.7c35.4-3.3,70.8-0.4,106.2-1.8c12.5-0.5,22.5,2.3,29.6,13.1
		c0,7.4,0,14.7,0,22.1c-1.9,0.3-2,2.1-2.6,3.4c-10.2,25.1-29.1,36.8-55.9,36.6c-12.9-0.1-25.9,1-38.6-0.5c-23-2.7-38,8-49.3,26.4
		c-3.4,5.5-6.8,10.9-9.8,16.6c-9.9,18.3-17.1,37.9-25.7,56.8c-20.4,44.7-51.6,77.8-100.1,91.8c-8.9,2.6-18,4.3-27,6.4
		c-14.7,0-29.4,0-44.2,0c-3.1-3.8-7.8-2.7-11.7-3.5c-43.7-9-80.8-29.4-109.8-63.7c-9.6-11.4-16.6-24.4-23.9-38.5
		c-24,51.3-63.8,81.9-115.7,97.8c-10.9,3.3-22.1,5.3-33.2,7.9C339.5,842.2,324.8,842.2,310.1,842.2z M437.9,655.5
		c19.8,5.3,39.7,10,60.4,10.1c26.3,0.1,51.3-7.3,76.6-13.2c4.6-1.1,6-4.5,6-9c0-10.7,0.2-21.4,0.5-32.1c0.1-4.2-1.4-5.7-5.7-6.4
		c-33.5-5.1-51.6-27-51-61.6c0.1-4-1.1-5-4.5-4.4c-14.3,2.3-28.7,2.1-43-0.1c-3.3-0.5-5.3,0.1-4.9,4.2c2.2,23.4-8.1,40.7-26.3,54.2
		c-7.9,3.1-15.3,7.6-24.2,7.8c-4.9,0.1-5.4,3.8-4.4,7.2c1.8,6.7,1,13.4,1,20.1C418.5,651.6,418.5,651.6,437.9,655.5z M891.7,393.7
		c-1.8,0.2-3.7,0.1-5.4,0.6c-24.2,6.3-48.3,12.8-72.6,19c-40,10.3-70.6,32.6-90.4,69.2c-12.9,23.8-18.5,49.5-21.9,76
		c-4.9,38.7-10.3,77.4-16.1,116c-3.8,25.5-9.5,50.2-36,63.7c7.9,3.7,15.5,3.1,23,3c8.7,1,17.1-0.5,25.3-3.1
		c29.2-9.5,47.3-30.9,59.5-57.6c10.8-23.6,20.5-47.6,30.3-71.6c16.8-41.1,48.6-63.7,90.5-74c13.6-3.3,27.7-4.8,40.5-11
		c14.2-6.8,22-18.2,22.8-33.8c0.2-4.2,0.6-10.2-7.2-7.8c-2.2-0.7-4.1,0.1-6.3,0.6c-27.5,7-55,13.8-82.4,21
		c-23.8,6.2-44.8,17.6-62.1,35.5c-13.3,13.9-22.2,30.6-31.2,47.3c-6.5,12-10.6,25.3-20.2,35.5c5.9-29.9,12-59.8,17.8-89.7
		c8.4-43.5,32.8-72.8,75.7-85.7c20.2-6.1,40.4-11.7,59.6-20.6c10.7-5,16.4-13.5,17.4-25C903.4,390.1,902.1,389.3,891.7,393.7z
		 M114.9,393.7c-10.4-4.4-11.7-3.7-10.7,7.3c1,11.6,6.7,20,17.4,25c18.9,8.8,38.8,14.6,58.8,20.3c39.8,11.3,64.8,37.5,74.5,77.1
		c8,32.5,13.3,65.7,19.8,98.6c-3.6-1.3-4.4-4.9-5.9-7.8c-7.1-13.5-14-27.2-21.1-40.7C230,540,204,516.3,167.3,505.7
		c-19.3-5.6-38.9-10.1-58.5-14.9c-12.1-3-23.7-7.7-36.3-8.6c-7.8-2.5-7.4,3.6-7.2,7.8c0.9,15.7,8.6,27.1,22.8,33.8
		c13.4,6.3,28.2,7.6,42.3,11.3c40.2,10.6,71.5,32.3,87.9,72.1c8.5,20.6,17.2,41.1,25.7,61.7c6.3,15.4,13.8,30,25,42.4
		c17.4,19.3,38.2,31.3,65.1,29.9c7.5,0.1,15.1,0.7,22.9-2.9c-6.8-4.4-13.3-8.1-18.1-14.3c-11.1-14.4-15.2-31.2-17.7-48.5
		c-6.5-45-12-90.1-18.8-135c-4.9-31.9-16.5-61.3-38.6-85.6c-19.3-21.2-43.2-34.6-71-41.5C166.8,406.9,141.2,398.8,114.9,393.7z
		 M440.7,679.9c-1.4-0.5-2.8-1.2-4.2-1.5c-13.6-3.4-13.7-3.4-17.4,10.2c-0.9,3.2-1.5,6.6-2.6,9.7c-8.9,26.7-23.5,48.4-52,57.5
		c-38.8,12.4-83.4-1.3-109.5-32.7c-16.9-20.4-27.5-43.9-37.1-68.1c-18-45.5-48.5-66.3-97.2-66.5c-29.7-0.1-59.4-0.1-89.1,0
		c-2.8,0-6.2-1.6-8.3,2c-0.2,21.1,14.6,35.5,37.7,36c16.2,0.3,32.5,0.3,48.7-0.3c16.3-0.7,30,4.5,41.5,15.9
		c9.3,9.1,16.4,19.8,22.8,31c9.4,16.5,16.7,34,24,51.5c12.4,29.8,28.5,57,55.8,75.8c31.7,21.8,67.1,27.4,104.3,21.5
		c53.3-8.5,96-33.8,122.6-82.2c7.7-14.1,14.5-29.1,12.1-46.2c-0.4-2.6-0.1-5.2-4.2-5.8C472.6,685.2,456.7,682.5,440.7,679.9z
		 M565.8,678.2c-16.9,3-33.7,6.1-50.6,8.9c-4.6,0.8-4.1,3.3-3.7,6.6c3.4,27.2,13.8,51.3,31.8,72c30.8,35.2,70.4,53.5,116.4,57.5
		c37.2,3.2,71.9-4.9,101.4-29.4c22.6-18.7,36.4-43.4,47.5-70c10.8-25.7,21.4-51.5,39-73.6c13.3-16.6,29.6-25.7,51.7-24.1
		c15.3,1.1,30.6,0.6,46,0.3c23.1-0.5,38-14.9,37.8-36c-1.7-3.3-4.9-2-7.4-2c-31.9-0.1-63.8-0.2-95.7,0.1c-7.3,0.1-14.6,1.4-21.8,2.7
		c-36.4,6.9-56.6,31.7-69.8,63.9c-5.5,13.3-10.5,26.8-17.6,39.4c-23.7,42.1-56.7,68.6-108,65.1c-24.8-1.7-44.7-11.8-59-32.3
		c-8.2-11.7-13-24.9-16.6-38.6c-4.3-16.5-4.5-16.5-20.9-11.2C566.2,677.7,566,678,565.8,678.2z M416.5,212.7
		c-6.6,2.4-10.6,8.1-15.4,12.7c-24.9,24.2-39.4,54.3-40.9,88.5c-1.9,44.6-0.9,89.3-0.3,134c0.3,22.8,11.4,39.7,31.7,50.9
		c16.1,8.8,33.6,9.9,51.2,11.6c22.5,4.5,45,10.1,68.1,7.4c24.5-2.9,49-6.6,73.4-10.5c33.4-5.3,54.9-30.5,55-64.3
		c0.1-39.5,0.2-79,0-118.5c-0.5-77.3-60.2-138.1-137.5-139.7C470.3,184.2,441.4,192.6,416.5,212.7z M413.7,583.2
		c24.2,0.2,40.6-19.8,36.3-42c-1-5-3.6-7.1-8.4-7.9c-15.9-2.7-32.4-2.3-47.7-8.7c-4.1-1.8-5.4,2.1-6.9,4.4
		c-7.5,11.4-8.4,23.5-2,35.6C391.3,576.7,401.8,582.7,413.7,583.2z M582.8,583.2c12.1-0.4,22.7-6.1,29.2-18.2
		c6.3-11.7,5.8-23.5-0.9-34.8c-1.5-2.6-2.8-6.6-7.5-4.8c-15.7,5.8-32.4,5.4-48.6,8.3c-4.9,0.9-7.1,3.3-7.9,8.2
		C543.3,563.7,559.3,583.1,582.8,583.2z"/>
	<path class="st1" d="M416.5,212.7c24.9-20.2,53.8-28.6,85.3-27.9c77.3,1.6,137,62.4,137.5,139.7c0.2,39.5,0.1,79,0,118.5
		c-0.1,33.8-21.6,59-55,64.3c-24.4,3.8-48.9,7.6-73.4,10.5c-23.1,2.7-45.6-2.9-68.1-7.4c-0.5-2.5-2.7-3.1-4.6-4.1
		c-27.2-14.6-39.8-37.8-39.9-68.1c-0.1-52.4,0-104.7,0-157.1c0-9.2,1.5-18.2,3.3-27.2C404.5,239.3,411.1,226.3,416.5,212.7z
		 M431.5,363.7c0,7.8,6.6,14.5,14.5,14.7c6.8,0.1,15-8.2,14.7-14.9c-0.3-8-7-14.4-14.8-14.3C437.8,349.3,431.6,355.5,431.5,363.7z
		 M538.2,367.6c0.1,7.8,6.9,14.5,14.7,14.5c6.4,0,14.3-7.7,14.5-14.2c0.3-8.2-6.7-15.2-15-15C544.3,353.1,538.2,359.4,538.2,367.6z
		 M484.4,424.6c-8.1,0.2-14.3,6.5-14.2,14.7c0,7.8,6.8,14.5,14.6,14.5c6.8,0,14.9-8.3,14.6-15C499,430.7,492.3,424.4,484.4,424.6z
		 M499.7,306.9c8.3,0,14.8-6.5,14.5-14.3c-0.3-7.5-6.8-13.5-14.7-13.4c-7.9,0-14.4,6.1-14.5,13.6
		C484.8,300.7,491.4,306.9,499.7,306.9z"/>
	<path class="st2" d="M983.2,590.4c0.2,21.1-14.7,35.5-37.8,36c-15.3,0.3-30.7,0.8-46-0.3c-22.1-1.6-38.5,7.5-51.7,24.1
		c-17.6,22.1-28.2,47.9-39,73.6c-11.1,26.5-24.9,51.2-47.5,70c-29.6,24.5-64.2,32.6-101.4,29.4c-46-4-85.6-22.3-116.4-57.5
		c-18.1-20.6-28.4-44.8-31.8-72c-0.4-3.3-0.9-5.8,3.7-6.6c16.9-2.8,33.7-5.9,50.6-8.9c0.7,4.2,1,8.5,2.1,12.6
		c6.1,24.5,16.9,46.5,36.7,63.1c27.3,22.9,59,26,92.5,19c39.2-8.2,66.7-31.5,84.3-67.1c10.3-20.8,19.6-42.2,32.5-61.7
		c17.4-26.3,40-41.9,73.3-39.5c17.4,1.3,34.9-0.6,52.3,0.5C956.4,606.1,970.8,601.8,983.2,590.4z"/>
	<path class="st2" d="M440.7,679.9c16,2.6,31.9,5.3,48,7.6c4.1,0.6,3.8,3.2,4.2,5.8c2.4,17.1-4.3,32.1-12.1,46.2
		c-26.6,48.4-69.3,73.7-122.6,82.2c-37.2,5.9-72.6,0.3-104.3-21.5c-27.3-18.8-43.4-46-55.8-75.8c-7.3-17.5-14.6-35-24-51.5
		c-6.4-11.2-13.5-21.8-22.8-31c-11.5-11.4-25.2-16.6-41.5-15.9c-16.2,0.7-32.5,0.6-48.7,0.3c-23.1-0.5-37.9-14.9-37.7-36
		c12.4,11.4,26.8,15.6,43.7,14.7c19.2-1,38.6,0.4,57.9-0.4c27.1-1.1,46.6,11.3,62.3,32c16.5,21.7,26.4,46.8,38.7,70.7
		c16.3,31.8,40.6,54,75.6,63.4c26.6,7.2,53.2,8.4,78.8-3.5C417.4,750.1,433.8,718.2,440.7,679.9z"/>
	<path class="st2" d="M274.6,622.1c-6.5-32.9-11.8-66.1-19.8-98.6c-9.7-39.5-34.7-65.8-74.5-77.1c-20-5.7-39.9-11.5-58.8-20.3
		c-10.7-5-16.4-13.5-17.4-25c-1-11,0.3-11.8,10.7-7.3c2.8,6.6,8.9,8.9,15,10.8c20.1,6.3,40.3,12.4,60.4,18.5
		c50.4,15.4,78.3,51.8,92.1,100.5c3.9,13.7,5,28.1,7.1,42.3c4.6,31.3,8.8,62.7,13.4,94c4.4,29.4,9.6,58.6,31.4,81.4
		c-26.9,1.3-47.8-10.6-65.1-29.9c-11.2-12.4-18.7-27.1-25-42.4c-8.5-20.6-17.2-41.1-25.7-61.7c-16.4-39.8-47.7-61.4-87.9-72.1
		c-14.1-3.7-28.9-5-42.3-11.3c-14.3-6.7-22-18.2-22.8-33.8c-0.2-4.2-0.6-10.2,7.2-7.8c5.4,11.7,16.7,14.4,27.5,17.7
		c17.8,5.5,36.8,5.9,54.2,12.8c33.5,13.3,61.3,32.8,76.3,67.2c12.5,28.6,25.4,57,38.3,85.4c5.7,12.5,12.1,24.5,21.6,35.2
		C285.1,674.3,279.9,648.2,274.6,622.1z"/>
	<path class="st2" d="M934,482.2c7.8-2.5,7.4,3.6,7.2,7.8c-0.9,15.7-8.6,27-22.8,33.8c-12.8,6.2-26.9,7.7-40.5,11
		c-41.9,10.3-73.7,32.9-90.5,74c-9.8,24-19.5,48.1-30.3,71.6c-12.2,26.8-30.3,48.1-59.5,57.6c-8.2,2.7-16.6,4.1-25.3,3.1
		c8-9,14.6-18.6,19-29.9c7.5-18.9,10.5-38.7,13.4-58.6c4.5-31.6,9.3-63.2,13.7-94.9c3.5-25.4,7.1-50.6,21.4-73
		c18.7-29.2,41.7-52.4,76.4-61.8c20.3-5.5,40.3-12.1,60.4-18.4c6-1.9,12.2-4.2,15-10.8c10.4-4.4,11.7-3.7,10.7,7.3
		c-1,11.5-6.6,20.1-17.4,25c-19.2,8.9-39.5,14.5-59.6,20.6c-42.9,12.9-67.3,42.2-75.7,85.7c-5.8,29.9-11.8,59.8-17.8,89.7
		c-5.2,26.1-10.5,52.3-16,79.7c4.2-2.7,5.4-5.5,6.9-8.1c19.7-34.7,35-71.5,50.5-108c18.6-43.8,52.8-66.6,96.6-78.1
		c13.5-3.6,27.7-4.5,41-9C920.1,495.4,929.7,492.4,934,482.2z"/>
	<path class="st2" d="M446,597.3c18.2-13.5,28.5-30.8,26.3-54.2c-0.4-4.1,1.6-4.7,4.9-4.2c14.3,2.2,28.7,2.4,43,0.1
		c3.5-0.6,4.6,0.4,4.5,4.4c-0.6,34.6,17.5,56.5,51,61.6c4.3,0.7,5.8,2.2,5.7,6.4c-0.3,10.7-0.4,21.4-0.5,32.1c0,4.5-1.4,8-6,9
		c-25.3,5.9-50.3,13.3-76.6,13.2c-20.7-0.1-40.6-4.9-60.4-10.1C440.6,636.1,443.3,616.7,446,597.3z"/>
	<path class="st3" d="M416.5,212.7c-5.3,13.6-12,26.6-14.8,41.1c-1.8,9-3.3,18-3.3,27.2c0,52.4,0,104.7,0,157.1
		c0.1,30.4,12.7,53.5,39.9,68.1c1.9,1,4.1,1.6,4.6,4.1c-17.5-1.7-35.1-2.7-51.2-11.6c-20.3-11.1-31.4-28.1-31.7-50.9
		c-0.6-44.7-1.6-89.4,0.3-134c1.5-34.2,15.9-64.3,40.9-88.5C405.8,220.8,409.9,215.2,416.5,212.7z"/>
	<path class="st3" d="M983.2,590.4c-12.4,11.4-26.8,15.7-43.7,14.7c-17.4-1-35,0.8-52.3-0.5c-33.2-2.5-55.9,13.1-73.3,39.5
		c-12.9,19.5-22.2,40.9-32.5,61.7c-17.7,35.6-45.1,58.9-84.3,67.1c-33.5,7-65.2,3.9-92.5-19c-19.7-16.5-30.6-38.5-36.7-63.1
		c-1-4.1-1.4-8.4-2.1-12.6c0.2-0.2,0.4-0.5,0.7-0.6c16.5-5.3,16.6-5.3,20.9,11.2c3.6,13.7,8.4,26.9,16.6,38.6
		c14.3,20.5,34.2,30.6,59,32.3c51.3,3.5,84.3-23,108-65.1c7.1-12.6,12.1-26.1,17.6-39.4c13.3-32.2,33.4-57,69.8-63.9
		c7.2-1.4,14.5-2.6,21.8-2.7c31.9-0.3,63.8-0.2,95.7-0.1C978.3,588.4,981.5,587.1,983.2,590.4z"/>
	<path class="st3" d="M440.7,679.9c-6.9,38.3-23.3,70.2-60.3,87.5c-25.6,11.9-52.2,10.7-78.8,3.5c-35-9.4-59.3-31.6-75.6-63.4
		c-12.3-23.9-22.3-49-38.7-70.7c-15.8-20.8-35.2-33.1-62.3-32c-19.3,0.8-38.6-0.6-57.9,0.4c-16.9,0.9-31.3-3.3-43.7-14.7
		c2.1-3.5,5.5-2,8.3-2c29.7-0.1,59.4-0.2,89.1,0c48.7,0.2,79.1,21,97.2,66.5c9.6,24.3,20.2,47.8,37.1,68.1
		c26.1,31.4,70.8,45.1,109.5,32.7c28.4-9.1,43-30.8,52-57.5c1.1-3.2,1.7-6.5,2.6-9.7c3.7-13.6,3.7-13.6,17.4-10.2
		C437.9,678.7,439.3,679.4,440.7,679.9z"/>
	<path class="st3" d="M334.2,741.2c-21.7-22.8-27-51.9-31.4-81.4c-4.6-31.3-8.8-62.7-13.4-94c-2.1-14.1-3.2-28.6-7.1-42.3
		c-13.8-48.7-41.6-85.1-92.1-100.5c-20.1-6.2-40.3-12.2-60.4-18.5c-6-1.9-12.2-4.2-15-10.8c26.4,5,51.9,13.2,77.9,19.6
		c27.8,6.9,51.7,20.3,71,41.5c22.2,24.3,33.8,53.7,38.6,85.6c6.8,44.9,12.3,90,18.8,135c2.5,17.3,6.6,34.1,17.7,48.5
		c4.8,6.2,11.4,9.9,18.1,14.3C349.2,741.9,341.7,741.3,334.2,741.2z"/>
	<path class="st3" d="M891.7,393.7c-2.8,6.6-8.9,8.9-15,10.8c-20.1,6.3-40.1,12.9-60.4,18.4c-34.7,9.4-57.7,32.5-76.4,61.8
		c-14.3,22.4-17.9,47.6-21.4,73c-4.4,31.6-9.2,63.2-13.7,94.9c-2.9,19.9-5.9,39.7-13.4,58.6c-4.5,11.3-11.1,21-19,29.9
		c-7.5,0.1-15.1,0.7-23-3c26.4-13.5,32.2-38.2,36-63.7c5.7-38.6,11.2-77.3,16.1-116c3.4-26.5,9-52.2,21.9-76
		c19.9-36.6,50.4-58.9,90.4-69.2c24.2-6.2,48.4-12.7,72.6-19C888,393.8,889.9,393.9,891.7,393.7z"/>
	<path class="st3" d="M274.6,622.1c5.2,26.1,10.5,52.3,15.7,78.4c-9.5-10.7-15.9-22.7-21.6-35.2c-12.9-28.4-25.8-56.8-38.3-85.4
		c-15-34.4-42.8-53.9-76.3-67.2c-17.5-6.9-36.5-7.3-54.2-12.8c-10.7-3.3-22-6.1-27.5-17.7c12.6,0.9,24.2,5.6,36.3,8.6
		c19.5,4.8,39.2,9.3,58.5,14.9c36.7,10.7,62.8,34.4,80.3,67.9c7.1,13.5,14,27.2,21.1,40.7C270.2,617.2,271,620.7,274.6,622.1z"/>
	<path class="st3" d="M934,482.2c-4.3,10.2-13.9,13.2-23.1,16.4c-13.3,4.5-27.5,5.5-41,9c-43.8,11.5-78,34.4-96.6,78.1
		c-15.5,36.5-30.8,73.3-50.5,108c-1.5,2.6-2.7,5.4-6.9,8.1c5.5-27.4,10.7-53.6,16-79.7c9.6-10.2,13.7-23.6,20.2-35.5
		c9.1-16.7,17.9-33.4,31.2-47.3c17.2-17.9,38.3-29.2,62.1-35.5c27.4-7.2,54.9-14,82.4-21C929.9,482.2,931.9,481.5,934,482.2z"/>
	<path class="st4" d="M413.7,583.2c-11.9-0.5-22.4-6.4-28.7-18.6c-6.3-12.1-5.5-24.2,2-35.6c1.5-2.3,2.8-6.1,6.9-4.4
		c15.2,6.5,31.7,6,47.7,8.7c4.9,0.8,7.5,2.9,8.4,7.9C454.3,563.3,437.9,583.4,413.7,583.2z M415.5,562.7c8.2,0.1,14.5-6.1,14.4-14.4
		c0-7.9-6-13.9-13.8-14c-8.3-0.2-14.5,6-14.4,14.3C401.7,556.5,407.7,562.5,415.5,562.7z"/>
	<path class="st4" d="M582.8,583.2c-23.5-0.1-39.5-19.5-35.8-41.3c0.9-5,3-7.3,7.9-8.2c16.2-3,32.9-2.5,48.6-8.3
		c4.7-1.8,5.9,2.3,7.5,4.8c6.7,11.4,7.2,23.2,0.9,34.8C605.5,577.1,594.9,582.8,582.8,583.2z M581.6,562.7
		c8.2-0.1,14.2-6.6,13.9-14.9c-0.3-7.8-6.5-13.6-14.4-13.5c-8.3,0.1-14.2,6.5-13.8,14.9C567.6,557,573.7,562.8,581.6,562.7z"/>
	<path class="st3" d="M446,597.3c-2.7,19.4-5.4,38.8-8.2,58.2c-19.4-3.8-19.3-3.8-19.5-23.2c-0.1-6.7,0.8-13.4-1-20.1
		c-0.9-3.4-0.4-7.1,4.4-7.2C430.7,604.9,438.1,600.4,446,597.3z"/>
	<path class="st5" d="M831.6,580.2c-1.4,0.7-2.9,1.7-4.1-0.3c1-0.4,2-0.7,3-1.1C830.9,579.3,831.3,579.7,831.6,580.2z"/>
	<path class="st3" d="M431.5,363.7c0-8.1,6.2-14.4,14.4-14.5c7.9-0.1,14.6,6.3,14.8,14.3c0.2,6.7-8,15-14.7,14.9
		C438.1,378.2,431.5,371.5,431.5,363.7z"/>
	<path class="st3" d="M538.2,367.6c-0.1-8.2,6-14.5,14.2-14.7c8.3-0.2,15.3,6.8,15,15c-0.2,6.5-8.1,14.2-14.5,14.2
		C545.1,382.1,538.3,375.4,538.2,367.6z"/>
	<path class="st3" d="M484.4,424.6c7.9-0.2,14.6,6.1,15,14.2c0.3,6.7-7.8,15.1-14.6,15c-7.8,0-14.6-6.7-14.6-14.5
		C470.1,431.1,476.3,424.8,484.4,424.6z"/>
	<path class="st3" d="M499.7,306.9c-8.3,0-14.9-6.2-14.7-14.1c0.1-7.5,6.6-13.6,14.5-13.6c7.9,0,14.4,5.9,14.7,13.4
		C514.5,300.4,507.9,306.9,499.7,306.9z"/>
	<path class="st0" d="M415.5,562.7c-7.8-0.1-13.8-6.2-13.8-14c-0.1-8.4,6.1-14.5,14.4-14.3c7.8,0.1,13.8,6.2,13.8,14
		C430,556.6,423.7,562.8,415.5,562.7z"/>
	<path class="st0" d="M581.6,562.7c-7.9,0.1-14-5.7-14.4-13.5c-0.3-8.4,5.5-14.7,13.8-14.9c7.9-0.1,14.1,5.7,14.4,13.5
		C595.8,556.1,589.8,562.5,581.6,562.7z"/>
</g>
</svg>
