<?xml version="1.0" encoding="utf-8"?>
<!-- Generator: Adobe Illustrator 19.0.0, SVG Export Plug-In . SVG Version: 6.00 Build 0)  -->
<svg version="1.1" id="Layer_1" xmlns="http://www.w3.org/2000/svg" xmlns:xlink="http://www.w3.org/1999/xlink" x="0px" y="0px"
	 viewBox="0 0 600 600" style="enable-background:new 0 0 600 600;" xml:space="preserve">
<style type="text/css">
	.st0{fill:#FFBFBB;}
</style>
<path class="st0" d="M585.4,232.2c-2.3-11.3-6-22.1-10.2-32.8c-2.1-5.5-4.4-10.8-7.1-16c-1.4-2.7-2.9-5.4-4.4-8
	c-0.9-1.6-4.4-5.5-4.4-7.2c-4.3-7.5-9.5-14.4-14.9-21.2c-2.4-3.1-4.7-6.3-7.7-8.9c-0.8-0.4-0.8-1.3-1.4-1.9
	c-4.7-4.8-9.2-9.7-14-14.4c-2.7-2.7-5.3-5.4-8.5-7.6c-6.7-6.4-13.9-12.2-21.5-17.6c-8.2-6.4-16.8-12.3-25.8-17.6
	c-8.5-5.6-17.3-10.7-26.3-15.4c-7.5-4.3-15.3-8.1-23.1-11.8c-4.3-2-8.5-4.3-13-5.8c-0.5,0-0.9-0.4-1.3-0.6
	c-8-3.9-16.2-7.2-24.6-10.1c-6.9-2.6-13.8-5.3-20.9-7.3c-6.9-2.3-13.9-4.3-21-5.9c-0.7-0.1-1.4-0.3-2.1-0.4c-23.5-5.7-47.8-9-72-7.8
	c-24.1,1.2-48,6.4-70.3,15.5c-14.4,5.9-27.9,13.5-40.4,22.8c-8,5.5-15.4,11.6-22.4,18.4c-3.7,2.6-6.5,6.1-9.6,9.2
	c-7.2,7.3-14,14.9-20.1,23.1c-0.7,0.5-1.2,1.1-1.5,1.9c-0.5,0.7-1.1,1.3-1.6,2c-0.6,0.7-1.1,1.4-1.7,2.1
	c-22.2,29.5-39.7,61.6-54.1,95.5c-25.7,60.4-39.1,135.5-12.7,198c25.4,60.2,79.1,103.1,135.1,133.6c5.2,2.8,10.4,5.6,15.7,8.2
	c34.1,17.1,70,31.3,107.6,38s77,5.8,113.1-6.6c81.4-27.8,133.3-106.3,165.1-182c10-23.7,18.8-49.1,22.5-74.7
	c1.8-12.7,1.7-25.5,1.6-38.3c-0.1-9.2-0.2-18.3-0.2-27.5c0-3.8-0.1-7.7-0.4-11.5C586.6,238.5,586,235.4,585.4,232.2
	C585.4,232.2,585.4,232.2,585.4,232.2z M259.8,14.1C259.8,14.1,259.8,14.1,259.8,14.1L259.8,14.1C259.8,14.1,259.8,14.1,259.8,14.1z
	 M315.3,516.4c-10.7,5.5-21.7,10.3-33.2,14c-26.9,8.7-56.4,11-83.4,2.6c-23.9-7.5-44.8-23-61.3-41.8c-18.4-20.9-32.2-45.7-43.4-71.1
	C72.7,372,59,318.7,56.8,265.2c-1.2-28.8,0.9-58.5,12.4-84.9c39.3-90.9,150.5-87.6,232.3-72.3c3.5,0.7,7.1,1.3,10.6,2
	c65.5,12.9,131.5,33.2,192.2,61.1c14.3,6.6,28.7,13.7,40.6,24.1c11.9,10.4,21.3,24.4,23,40.1c3.1,27.7-16.6,53.6-32.1,74.7
	c-2.2,3-4.8,5.7-6.2,9.3c0,0.1,0,0.1,0,0.2c-1.3,0.2-1.6,1.4-2.3,2.2c-20.2,27.2-41.6,53.5-65.1,77.9c-0.5,0.5-1.5,1-1,2.1
	c-1.2,0.1-1.7,1.2-2.5,1.9c-32.5,31.4-64.7,61.7-102,87.6C343.5,500.2,329.7,509,315.3,516.4z"/>
<g>
	<path id="_4_copy" d="M405.5,338l-1.2,4.1c-1.9,6.8-7.2,10.1-12.3,10.1h-11.9V249.7h-30.8l-63.9,109.5h54.2v32.9
		c0,7.4-3.7,11.1-11.9,11.1h-9.4v2.3h78.4v-2.3h-6.2c-6.8,0-10.3-2.7-10.3-9.5v-34.5h22.4l5.3-21L405.5,338z M339.6,352.2h-46.8
		l46.8-79.5L339.6,352.2L339.6,352.2z"/>
	<path d="M202.3,219.4c0,0-5.7,10.3-3.3,21.9c2.4,11.6,12,20.1,23.4,19.2s22-8.1,21-22.8c-0.9-14.7-15.6-19.4-21.7-18.1
		c-6,1.3-11.3,3.3-12.9,5.1c-1.6,1.8-0.9-6.8,1.3-10c0,0,1.7-4.5,9.6-10.2c7.9-5.7,18-7.4,24.8-5.8c6.8,1.6,11.9,7.5,13.2,9.9
		c1.2,2.4,5.1,8.8,5.3,22.6c0.1,13.8-2.7,28.3-13.4,39.3s-19.9,14.7-23.1,16.1c-3.2,1.3-18.2,10.2-24.7,21
		c-6.5,10.8-8.1,16.3-9.1,22.6c-1,6.3-0.4,18.5,1.5,23.4h3.4c0,0-2.1-7.4,1.1-13c3.2-5.6,10.6-9.2,16.4-9.2s12.2,2.7,21.9,12.9
		c9.7,10.2,20.2,15.4,33.3,14.2l26.2-44.2c0,0-4.1,3.4-10.6,3.2c-6.5-0.2-32.8-2.6-40.5-2.4c-7.7,0.2-14.1,0.6-21.8,2.4
		c-7.8,1.8-11.7,5.1-15.7,8c-4,2.9-8.1,7.3-9.7,10.1c-1.7,2.8-1.9,3.2-2.3,4.5c-0.4,1.3-1.7-10.3,2.9-20.6
		c4.6-10.2,12-22.7,34.3-32.5c0,0,3.6-1.4,10.5-3.4c6.9-2,31.4-7.3,40-13.3c8.6-6,17.1-11.7,20.4-22.8c3.3-11.1,1.7-20.1-3.1-30.1
		c-4.8-10-19.5-18.2-28.7-20.3s-18.2-4.2-34-2.1c-15.8,2.1-22.6,8.4-27,12.2C206.9,211.1,203,217.9,202.3,219.4z"/>
</g>
</svg>
