<?xml version="1.0" encoding="utf-8"?>
<!-- Generator: Adobe Illustrator 19.0.0, SVG Export Plug-In . SVG Version: 6.00 Build 0)  -->
<svg version="1.1" id="Layer_1" xmlns="http://www.w3.org/2000/svg" xmlns:xlink="http://www.w3.org/1999/xlink" x="0px" y="0px"
	 viewBox="0 0 600 600" style="enable-background:new 0 0 600 600;" xml:space="preserve">
<style type="text/css">
	.st0{display:none;}
	.st1{display:inline;fill:#FFFFFF;}
	.st2{display:inline;}
	.st3{display:none;fill:#141414;}
	.st4{fill:#141414;}
	.st5{display:none;fill:#DD847F;}
	.st6{display:none;fill:#FFDFDC;}
	.st7{display:none;fill:#FFBFBB;}
	.st8{fill:#FFDFDC;}
</style>
<g class="st0">
	<path class="st1" d="M-19,457c-199.9,0-399.9,0-599.9,0c0-104.2,0-208.5,0-312.9c199.9,0,399.9,0,599.9,0
		C-19,248.4-19,352.7-19,457z M-72.1,359.8c4.8,5,7.8,9.2,7.5,15.3c-0.2,4.7,3,7.6,7.5,10c-5-9-5.1-9.7-3.3-13.6
		c5.5,11.5,9.9,14.3,20.9,12.9c-10.1-0.6-13.7-6.7-14.9-15.7c-0.5-4-2.5-8-4.7-11.4c-3.8-5.6-8.3-10.7-12.4-15.9
		c7.9,2.1,12.1,8.6,16.1,15.3c-1.4-12.5-9.4-19.3-20.2-23.7c-4.6-1.9-9.3-3.7-13.6-6.1c-4.7-2.6-8.1-6.3-6.9-12.5
		c0.4-2-0.3-4.2-0.5-6.6c4.9,2.3,6.5,6.6,8,11c1.6,4.7,4.4,7.9,9.3,9.4c-2.6-4.6-5-8.9-7.3-13c3.2,3.3,6.3,6.6,9.4,9.8
		c0.4-0.4,0.7-0.8,1.1-1.2c-2.4-4.6-4.9-9.2-7.3-13.8c0.3-0.1,0.6-0.3,0.9-0.4c3.2,2.9,6.3,5.8,9.5,8.7c0.3-0.3,0.6-0.6,0.8-0.9
		c-6.1-5.5-8.9-12.7-10.9-20.4c-0.5-2.1-1.1-4.2-1.9-6.2c-4.1-10.6-11.7-17.3-23.2-18.8c-11.6-1.4-20.3,3.5-26.9,12.8
		c-2.5,3.5-5.3,6.9-8.3,9.9c-1,1-3.5,1.8-4.8,1.3c-11.6-4.3-23-2.1-34.4,0.5c-4.7,1-9.4,1.9-14.2,2.6c-11.6,1.7-20.3-6-31.5-9.7
		c4.5-0.7,7.9-1.3,12.2-1.9c-3.2-1.2-5.4-2-7.7-2.8c0.1-0.4,0.2-0.8,0.3-1.1c3.3,0.8,6.6,1.6,11.2,2.7c-3-2.7-5.2-4.7-7.9-7.1
		c6.3,0.9,11.4,7.2,17.5,1.4c-7,3.3-9.6-2.7-13.6-6c1.1-0.4,2-0.7,3.4-1.2c-2-1-3.5-1.6-5.2-2.4c2.3-1,4.2-1.8,6.1-2.6
		c-2.9-0.3-5.8,0.2-7.8-0.9c-4.6-2.7-8.7-6.3-13-9.6c-0.1-0.1,0.1-0.6,0.2-1.4c5.8,2.4,11.5,4.8,17.3,7.3c-0.1-0.6-0.1-1.1-0.2-1.5
		c-0.1-0.6-0.3-1.1-0.4-1.4c2.6-0.4,4.9-0.8,7.2-1.2c0.1-0.5,0.2-1,0.2-1.6c-8.3,2.4-9.7-4.8-13.5-8.7c2.1-1,4.2-2.1,6.3-3.1
		c-5,0.8-9.8,3.2-14.5-1.4c1.4-0.5,2.3-0.9,3.4-1.3c-6.5-4.6-12.6-8.8-18.7-13.1c5.4,3.5,11.8-5.8,17.4,1.3c-3.6-10-12.8-4.3-19-6.4
		c1.6-1.8,3-3.4,4.5-5c-0.3-0.3-0.6-0.6-0.9-1c-2.6,4.2-5.7,4.1-9.3,1.5c-0.9-0.7-2-1.2-3.1-1.6c-7.8-2.8-16.8-3-21.8-11.3
		c-0.1-0.1-0.6,0-1.3,0c0.2,2,0.4,3.9,0.6,5.9c-4.8,1.4-8.7,1-11.1-4.3c-0.3,0.4-0.6,0.8-0.9,1.3c0.3,2.5,0.7,5.1,1,7.6
		c-5.2,2.5-5.6-1-5.8-4.8c-2.2,5.1-4.3,9.9-6,13.9c2.7-1.1,5.8-2.3,9-3.6c0.2,0.4,0.4,0.8,0.6,1.2c-2.2,2.4-4.6,4.6-6.7,7.1
		c-5.3,6.5-9.8,13.8-15.8,19.5c-2.8,2.7-4.3,5-4.9,8.4c-0.8,4.6,2.8,7.7,7.4,6.6c0.6-0.1,1.3-0.1,2-0.1c-0.5,1.2-0.9,2.1-1.7,3.8
		c5.8-0.5,11.4,1.6,14.4-5c0.3-0.8,1.5-1.3,2.4-1.7c4.9-2,9.9-3.9,15.6-6.2c0.9,3.9,2.4,6.7,2,9.2c-1,6.8-1.8,14-4.6,20.2
		c-5.5,12.4-10,24.9-10.6,38.5c-0.3,5.6-3.4,8.8-8.8,7.6c-3.1-0.7-6.1-2-9.2-2c-5.2-0.1-10.6,0-15.6,1.2c-2.2,0.5-5.1,3.8-5.3,6.1
		c-0.5,4.2-0.4,8.8,4.1,12c8.1,5.9,14.7,13.3,19.3,21.2c-3.8,3.7-7.5,6.6-10.3,10.2c-7.5,9.5-14.4,20.1-25.1,26.1
		c-7.9,4.4-11.6,11.8-17,18.1c-1,1.1-1.3,2.8-2.5,5.7c7.1-0.8,13.9,0.1,18.6-2.5c4-2.2,5.7-8.6,8.5-13.2c0.5,0.6,1.4,1.6,3.1,3.4
		c1.9-4.4,3.8-8,5.1-11.8c2.2-6.7,7.5-10.4,13-13.9c5.9-3.7,12.1-6.9,18.8-10.7c3.6,2.1,8.4,4.8,13.2,7.6c0.5-0.4,1.1-0.7,1.6-1.1
		c-1.3-5.2-2.6-10.3-3.9-15.6c0.9-0.3,2.2-0.7,3.4-1.2c9.1-3.6,18.5-6.7,27.1-11c4.2-2.1,7.5-2.5,11.9-1.5
		c10.5,2.5,21.1,2.4,31.5-1.3c4.2-1.5,8.5-2.8,12.9-3.9c5.8-1.5,9,0.5,8.9,6.4c-0.1,5.4,2.6,7.5,7.1,8.5c4.8,1.1,9.6,2.1,15.9,3.5
		c-4,2.6-6.7,4.7-9.7,6.2c-7.6,3.7-15.4,7.1-23.1,10.7c-4.9,2.3-8.7,5.5-8.8,11.6c0,1-1,2-1.4,3.1c-1.6,4.7-3.9,9.4-2.5,15.8
		c5.3-2.8,9.9-5.3,14.6-7.7c3.8-2,4.9-4.6,3.4-8.9c-0.8-2.2,0.2-5,0.5-8.2c4.2,2,7.1,3.3,9.9,4.6c5.1-11.5,5.4-9.7,14.9-14.1
		c3.6-1.7,7.6-2.3,11.3-3.8c3.6-1.5,7.4-3.1,10.5-5.4c6.5-5,5.9-6.9-1.7-10.5c-3.3-1.6-6.3-3.9-9.5-5.9c7,0,13.1,1.4,19.4,1.8
		c17.3,1.2,25,6.7,29.5,23.3c3.6,13.4,4.4,26.8-5.3,38.4c-1.6,1.9-4,3-5.6,4.8c-2,2.3-3.7,5-6.3,8.7c6,0.4,10.2,1.3,14.2,0.7
		c3.8-0.5,7.4-2.6,11.4-4.1c-0.5-2.6-0.9-4.9-1.4-7.1c-0.7-3.7-1-6.4,4.4-7.3c6.4-1.1,6.7-2.9,5-9.5c-4.3-16.4-9.1-32.7-10-49.7
		c-0.2-4.6-2.5-6.4-6.7-7c-4.1-0.6-8.3-1.1-12.2-2.3c-3.5-1.1-5.3-3.8-4.4-7.8c2.6-11.7,2.6-23-3.8-33.9c3,2.8,6,5.8,7.3,9.4
		c2.2,6,5.8,9.9,11.8,11.9c1.1,0.4,2,1.6,3,2.4c6.9,5.8,13.9,11.5,20.8,17.4c6,5.1,13.2,9.3,14.2,18.5
		C-72.1,366-72.1,363.5-72.1,359.8z M-482.7,434.7c9.3,4.3,18.8,0.6,22.4-8.3c0.6-1.4,2.5-3.3,3.4-3.1c4.6,0.9,7.4-1.2,8.4-6.2
		c1-4.8,2.3-9.7,4.4-14.1c2.5-5.2,5.9-10,8.8-15.1c3-5.2,2.7-6.6-2-10.3c-5.8-4.6-8.4-16-4.9-22.2c4-7,8.1-13.9,12.8-21.9
		c1.9,1.2,4.6,2.6,6.8,4.6c0.5,0.5-0.5,2.6-0.9,4.7c-2.2-1.7-3.5-2.8-6-4.8c0.8,4.2,1.4,7,2,9.9c-8.9,7.8-11,17.2-6,24.4
		c0.9-2,2-4.3,3-6.6c0.5,0.1,1,0.3,1.5,0.4c-2.5,5-3,9.9,0.1,14.7c0.5,0.7,0.1,2.2-0.3,3.2c-3.2,7.5-3.4,14.8,1.2,21.9
		c1.7,2.6,2.1,5.1-2.8,5.8c0.4,0.4,0.7,0.8,1.1,1.3c2.2-0.2,4.3-0.5,6.4-0.7c-2.2,9.4-0.6,13.6,6.9,16.2c5.9,2,11.2,5,18.2,4.9
		c11.5-0.1,16.2-2.6,18.9-14.2c-9.3,10.4-10.7,11-17,7.5c7.6-3.2,8.9-5.4,8-14.4c-0.4,0.6-0.7,0.9-0.9,1.3c-1.7,3.6-3.8,7.5-8.3,6.5
		c-2.9-0.7-6.1-3.3-7.7-5.9c-2.4-3.8,0.3-7.2,3.1-10.1c6.2-6.4,6.7-9.5,3-17.8c-3.1-7-2.3-12.2,2.6-17.2c0.8,1.6,1.7,3.2,2.4,4.5
		c0.5-3.6,0.9-7.2,1.3-10.7c0.6-5.6,1.9-11.2,1.6-16.8c-0.8-14.4-11.4-25.7-24.7-26.2c-5.1-0.2-10.3,1.6-16,2.6
		c-3.7-12-13.2-18.8-24.5-24.5c-9.9-4.9-14.1-14.6-17.9-24.7c2.8,0.3,4.9,0.8,7,0.7c3.1-0.2,6.7-0.9,7.7,2.6
		c0.8,2.8-0.3,6.2-0.5,9.4c4.6,0.5,5.4-0.7,4.6-8.6c2.2-0.5,4.4-1.1,6.7-1.6c-6.6-1.2-6.9-2-4.9-14.5c1.4,0.3,3.1,1.1,4.3,0.7
		c5.8-2.2,7.6,0.7,7.7,5.6c3.6,2.1,8.4-3,10.9,2.7c-1.1,1.2-2.1,2.2-3.1,3.3c0.3,0.4,0.7,0.8,1,1.2c1.8-1.4,4.8-2.6,5-4.2
		c0.2-2-1.8-4.3-2.9-6.5c-0.7-1.2-1.8-2.3-2.2-3.5c-0.9-2.9-1.5-6-2.2-9.2c1.3,1,2.9,2.1,4.2,3.4c4,3.9,7.8,3.2,9.2-2.2
		c0.7-2.7,0.1-5.7,0.1-8.5c-2.5,8.2-3.4,9.2-7.2,6.5c3.6-3.9,4.3-8.1,1.7-11.5c2.8-3.3,5.3-6.2,7.5-8.9c-3.7,0.4-7.5,1.9-9.8,0.7
		c-3.7-2-4.2-6.3-3.2-10.5c6.7,0.3,7.8,1.2,7,4.7c4.3-0.7,5.8-2.9,3.6-6.1c-1.1-1.6-3.2-3-5.1-3.5c-3.7-0.9-4.4-2.6-4.4-6.3
		c0-3.3-2-6.7-3.8-9.7c-1-1.6-3.4-2.4-4.5-3.1c2.2-1.4,5.2-2.4,6.6-4.5c0.7-1-1.3-3.9-2.4-7.1c-0.5,3.2-0.7,4.8-1.2,7.9
		c-5.3-5.4-8.8-12-17.4-7.6c2.6-5.4,5.5-3.8,8.3-2.9c6.8,2,10.2,0.1,11.7-6.8c-3.8,3.5-7.3,5-12,1.4c-1.8-1.3-5.4-0.4-8.1-0.4
		c-0.9,0-2.4,1.2-2.6,0.9c-3.6-4-9.1-2-12.8-3.9c-6.2-3.3-11.7-4-18-0.5c-0.3-0.6-0.5-1.1-0.8-1.7c1.4-0.8,2.8-1.5,4.1-2.3
		c-0.3-0.4-0.6-0.8-0.9-1.2c-3.3,1.9-6.5,3.8-10.8,6.2c0.4-2.3,0.7-4.1,1.2-6.5c-3.1,1-6.6,2-10.1,3.1c0.5-1,1.1-2.1,1.7-3.2
		c-0.4-0.3-0.9-0.6-1.3-0.9c-1.8,2.3-3.5,4.5-5.4,6.9c-0.7-0.5-2-1.4-3.3-2.3c-0.3,0.2-0.6,0.4-0.9,0.5c1.4,3.6,2.8,7.3,4.3,11.4
		c-3.8,0-7.4,0.4-6.8,6.7c2.5-3.4,4.7-5.6,6-3.5c-1.9,2.3-3.5,4.9-5.1,7.4c-1.4,2.4-2.4,5.1-4.1,7.1c-3.4,4.1-7.1,7.8-10.7,11.7
		c-3.9,4.2-1.8,10.8,3.6,12.9c6.5,2.6,11.3,1,15.7-4.4c3.3-4.1,11.4-5.4,15.8-3.2c-0.2,4.3-3,6.7-6.5,8c-4.3,1.7-9,2.6-13.3,4.3
		c-4.1,1.6-8.5,3.3-11.8,6.1c-5.4,4.5-10.1,9.9-15.9,15.7c-1.8-2.6-3.6-4.8-4.8-7.3c-2.8-5.5-6.3-7.9-10.4-5.8
		c-3.6,1.8-7.2,4.3-10,7.2c-5.6,5.6-10.6,11.8-16.1,17.5c-4.2,4.4-6.5,9.2-5.4,15.3c0.7,3.7,1.5,7.4,2.3,11.1c2.9-1.4,4,0,4,2.9
		c0,2.6-0.8,5.5,0.1,7.8c2.6,7,5.9,13.8,9,20.8c5-2,7.7-1.2,10.3,3.2c2.2,3.7,6.5,6.2,10.6,9.8c2.6-8.3,1.9-15.1-0.6-21.7
		c-0.4-0.9-2.1-2.1-3-1.9c-6.4,1.2-6.7-2-4.7-7.1c-2.1-0.2-3.8-0.3-5.3-0.6c-3.6-0.7-5-2.4-2.6-5.9c2.6-3.8,5-7.9,7.7-11.7
		c3.2-4.6,5.8-4.9,10.4-1.8c1.5,1,3.3,2.1,4.9,2.1c3.4,0,4.4,1.9,5.5,4.6c5.4,12.6,11.5,24.9,24,32.3c5.3,3.1,10.7,6.1,16.2,8.9
		c5.6,2.8,6.2,3.8,2.1,8.6c-3.6,4.2-4.6,8.9-3.5,14c1.2,5.5,3.1,10.8,4.7,16.2c1.7,5.3,2.2,11-1.5,15.2c-5.4,6.2-11.2,12.2-20,14
		c-2.4,0.5-6.4,3.7-6.2,4.6c1.1,3.5-1.4,3.5-3.1,4.4c-5.2,2.9-8.8,7.1-12.5,13.4c6.7-0.6,11.8-1.1,16.9-1.6c3-0.3,4.6-1.8,5.1-5
		c0.4-2.2,1.9-4.2,2.8-6.3c0.4,0.1,0.8,0.3,1.2,0.4c0,1.3,0,2.7,0,4.9c2.4-1.5,4.6-2.2,5.9-3.7c2.3-2.5,3.6-6.1,6.2-8.2
		c4.8-3.8,10-7.2,15.4-10c5.4-2.8,6.6-4.2,4.8-10c-2.2-7.1,1.3-18.4,7.1-22.6c2.1,1.7,4.3,3.5,6.5,5.2c10.2,7.8,19.2,16.3,16.5,30.8
		c-0.7,3.9-2.2,8-4.5,11.1c-2.2,3-6.3,4.4-8.8,7.2c-5.7,6.1-11,12.6-16.4,18.9C-482.6,433.4-482.6,434.2-482.7,434.7z"/>
	<path class="st2" d="M-72.1,359.8c0,3.8,0,6.2,0,8.7c-1-9.2-8.2-13.4-14.2-18.5c-6.9-5.8-13.9-11.6-20.8-17.4c-1-0.8-1.8-2-3-2.4
		c-6-2-9.6-5.9-11.8-11.9c-1.3-3.6-4.3-6.5-7.3-9.4c6.5,10.9,6.4,22.3,3.8,33.9c-0.9,4,0.9,6.7,4.4,7.8c3.9,1.2,8.1,1.8,12.2,2.3
		c4.2,0.6,6.5,2.4,6.7,7c0.9,17,5.7,33.4,10,49.7c1.7,6.6,1.4,8.4-5,9.5c-5.3,0.9-5.1,3.6-4.4,7.3c0.4,2.2,0.9,4.4,1.4,7.1
		c-4,1.5-7.6,3.5-11.4,4.1c-4,0.6-8.2-0.3-14.2-0.7c2.6-3.6,4.2-6.3,6.3-8.7c1.6-1.8,4-3,5.6-4.8c9.7-11.7,8.9-25.1,5.3-38.4
		c-4.4-16.6-12.1-22.2-29.5-23.3c-6.3-0.4-12.4-1.8-19.4-1.8c3.2,2,6.1,4.4,9.5,5.9c7.6,3.6,8.1,5.5,1.7,10.5
		c-3.1,2.4-6.9,3.9-10.5,5.4c-3.7,1.5-7.7,2.2-11.3,3.8c-9.5,4.4-9.8,2.6-14.9,14.1c-2.8-1.3-5.7-2.6-9.9-4.6
		c-0.2,3.2-1.2,6-0.5,8.2c1.5,4.3,0.5,6.9-3.4,8.9c-4.7,2.4-9.3,4.9-14.6,7.7c-1.4-6.4,0.9-11.1,2.5-15.8c0.4-1.1,1.4-2,1.4-3.1
		c0.1-6.1,4-9.3,8.8-11.6c7.7-3.6,15.4-7,23.1-10.7c3-1.5,5.7-3.6,9.7-6.2c-6.3-1.4-11.1-2.4-15.9-3.5c-4.5-1-7.2-3.1-7.1-8.5
		c0.1-5.9-3.1-7.9-8.9-6.4c-4.3,1.1-8.7,2.4-12.9,3.9c-10.4,3.7-21,3.8-31.5,1.3c-4.4-1-7.7-0.7-11.9,1.5c-8.7,4.4-18.1,7.5-27.1,11
		c-1.2,0.5-2.5,0.9-3.4,1.2c1.3,5.3,2.6,10.5,3.9,15.6c-0.5,0.4-1.1,0.7-1.6,1.1c-4.8-2.8-9.6-5.6-13.2-7.6
		c-6.7,3.8-12.9,7-18.8,10.7c-5.5,3.4-10.8,7.1-13,13.9c-1.3,3.8-3.2,7.5-5.1,11.8c-1.7-1.8-2.5-2.8-3.1-3.4
		c-2.8,4.7-4.5,11-8.5,13.2c-4.8,2.6-11.5,1.7-18.6,2.5c1.3-2.9,1.6-4.6,2.5-5.7c5.4-6.2,9-13.6,17-18.1c10.7-6,17.6-16.5,25.1-26.1
		c2.9-3.6,6.6-6.6,10.3-10.2c-4.6-7.9-11.2-15.3-19.3-21.2c-4.4-3.3-4.6-7.8-4.1-12c0.3-2.3,3.1-5.6,5.3-6.1
		c5-1.2,10.4-1.3,15.6-1.2c3.1,0.1,6.1,1.3,9.2,2c5.4,1.2,8.6-1.9,8.8-7.6c0.6-13.6,5.1-26.1,10.6-38.5c2.7-6.2,3.6-13.3,4.6-20.2
		c0.4-2.5-1.1-5.3-2-9.2c-5.7,2.3-10.7,4.2-15.6,6.2c-0.9,0.4-2.1,0.9-2.4,1.7c-3,6.6-8.7,4.5-14.4,5c0.7-1.7,1.2-2.6,1.7-3.8
		c-0.7,0-1.4,0-2,0.1c-4.5,1.1-8.1-2-7.4-6.6c0.5-3.3,2-5.7,4.9-8.4c6-5.7,10.6-13,15.8-19.5c2-2.5,4.4-4.7,6.7-7.1
		c-0.2-0.4-0.4-0.8-0.6-1.2c-3.1,1.2-6.2,2.5-9,3.6c1.7-4,3.8-8.8,6-13.9c0.3,3.7,0.6,7.3,5.8,4.8c-0.3-2.6-0.7-5.1-1-7.6
		c0.3-0.4,0.6-0.8,0.9-1.3c2.4,5.4,6.3,5.7,11.1,4.3c-0.2-1.9-0.4-3.9-0.6-5.9c0.7,0,1.2-0.1,1.3,0c5,8.3,14,8.5,21.8,11.3
		c1.1,0.4,2.2,0.9,3.1,1.6c3.6,2.6,6.7,2.7,9.3-1.5c0.3,0.3,0.6,0.6,0.9,1c-1.5,1.6-2.9,3.3-4.5,5c6.3,2,15.4-3.6,19,6.4
		c-5.5-7.1-12,2.2-17.4-1.3c6.1,4.3,12.2,8.5,18.7,13.1c-1.1,0.4-2,0.8-3.4,1.3c4.7,4.6,9.5,2.2,14.5,1.4c-2.1,1.1-4.2,2.1-6.3,3.1
		c3.8,3.9,5.2,11.2,13.5,8.7c-0.1,0.5-0.2,1-0.2,1.6c-2.3,0.4-4.6,0.8-7.2,1.2c0.1,0.3,0.2,0.9,0.4,1.4c0.1,0.5,0.1,0.9,0.2,1.5
		c-5.8-2.4-11.5-4.8-17.3-7.3c-0.1,0.9-0.3,1.4-0.2,1.4c4.3,3.3,8.4,6.8,13,9.6c2,1.2,5,0.7,7.8,0.9c-1.9,0.8-3.8,1.7-6.1,2.6
		c1.7,0.8,3.1,1.5,5.2,2.4c-1.4,0.5-2.3,0.8-3.4,1.2c3.9,3.4,6.6,9.4,13.6,6c-6.1,5.8-11.2-0.5-17.5-1.4c2.7,2.4,4.9,4.4,7.9,7.1
		c-4.5-1.1-7.9-1.9-11.2-2.7c-0.1,0.4-0.2,0.8-0.3,1.1c2.3,0.8,4.5,1.6,7.7,2.8c-4.3,0.7-7.7,1.2-12.2,1.9
		c11.2,3.7,19.8,11.4,31.5,9.7c4.8-0.7,9.5-1.5,14.2-2.6c11.4-2.5,22.8-4.7,34.4-0.5c1.3,0.5,3.8-0.3,4.8-1.3c3-3.1,5.8-6.4,8.3-9.9
		c6.6-9.3,15.3-14.3,26.9-12.8c11.5,1.4,19,8.1,23.2,18.8c0.8,2,1.3,4.1,1.9,6.2c2,7.7,4.8,14.9,10.9,20.4c-0.3,0.3-0.6,0.6-0.8,0.9
		c-3.2-2.9-6.3-5.8-9.5-8.7c-0.3,0.1-0.6,0.3-0.9,0.4c2.4,4.6,4.9,9.2,7.3,13.8c-0.4,0.4-0.7,0.8-1.1,1.2c-3.1-3.2-6.2-6.4-9.4-9.8
		c2.3,4.2,4.7,8.4,7.3,13c-4.9-1.5-7.7-4.7-9.3-9.4c-1.5-4.4-3.2-8.8-8-11c0.2,2.4,0.9,4.6,0.5,6.6c-1.2,6.2,2.2,9.9,6.9,12.5
		c4.3,2.4,9,4.3,13.6,6.1c10.8,4.4,18.8,11.2,20.2,23.7c-4.1-6.7-8.2-13.2-16.1-15.3c4.2,5.2,8.7,10.3,12.4,15.9
		c2.3,3.4,4.2,7.4,4.7,11.4c1.2,9,4.9,15.1,14.9,15.7c-11,1.4-15.4-1.4-20.9-12.9c-1.9,3.9-1.7,4.6,3.3,13.6
		c-4.5-2.4-7.7-5.3-7.5-10C-64.3,369-67.3,364.8-72.1,359.8z M-290.3,354.4c-5.9-2.4-13.6-5.7-21.9-9.1c0.9,7.9,4.9,12.5,9.8,16.2
		c1.5,1.1,5.2,1.4,6.4,0.3C-293.2,359.5-291.5,356.1-290.3,354.4z"/>
	<path class="st1" d="M-290.3,354.4c-1.2,1.7-3,5.1-5.6,7.5c-1.2,1.1-4.9,0.8-6.4-0.3c-4.9-3.7-8.9-8.4-9.8-16.2
		C-303.9,348.7-296.1,352-290.3,354.4z"/>
	<path class="st1" d="M-573.1,277.5c0.1,0.1-0.3-0.6-0.8-1.1c-5-5.4-5-5.4,1.2-9.8c3.1-2.2,6.1-4.6,9.3-6.6c4-2.5,6.9-1.6,9.7,3.7
		c-5.9-4.2-10.2-3.1-13.3,1.9C-569.3,269.5-571.2,273.7-573.1,277.5z"/>
</g>
<g class="st0">
	<path class="st2" d="M-97.2,311.4c-2.7,3.2-6.5,3.3-10.2,2.8c-8.1-0.9-13.1-6.2-15.9-13.2c-2.3-5.7-3.6-11.7-5.3-17.6
		c-1.6,3.7-3.4,7.8-5,12c-5,13-9.1,26.3-9.7,40.4c-0.4,11.2,0.2,22.3,7.1,32.3c-4.3-1.7-11.6-11-14.1-18.7c-2.4-7.5-3.8-15.2-5.6-23
		c-3.9,10.1-6.9,20.3-0.9,30.9c-0.2,0.1-0.5,0.3-0.7,0.4c-0.9-0.9-1.9-1.7-2.6-2.8c-6.8-9.4-7.5-19.9-5.4-30.9
		c2.7-14,5.8-27.9,8.3-41.9c1.5-8.5-0.2-16.2-6.7-22.9c-7.2-7.4-17.2-6.1-22.1,2.2c-3,5.1-7.2,6.6-12.4,6.7c-3.6,0.1-7.2,0-11.2,0
		c0.2,0.6,0.5,1.4,0.9,2c7.9,12.6,13,26.3,16.7,40.6c4.7,18.2,6.6,36.8,6.8,55.5c0.1,7.9,0.2,15.7,0.3,23.5
		c0.2,14.1,2.9,27.4,11.7,39c4.5,6,6.2,12.6,6.3,20.3c0.1,13.7,1.4,27.5,2.5,41.2c0.6,8.2,1.3,16.5,3,24.6c0.9,4.6,3.8,8.9,6,13.2
		c2.1,4.2,4.9,8.2,6.7,12.5c2.7,6.6,0.2,15.5-5.1,20.2c-4.1,3.7-9.8,3.4-13.2-0.9c-5.1-6.4-7.6-13.8-8.2-21.9
		c-1-13.7-1.3-27.5-3-41.1c-1.4-11.3-4.1-22.5-12-31.6c-3.5-4.1-4.9-9.2-5.8-14.6c-0.6-3.9-2.2-7.9-4.3-11.3
		c-6.4-10.2-11.6-20.9-17.1-31.5c-5.1-9.8-12.2-18.8-19.1-27.6c-7.2-9.3-14.9-18.3-18.9-30.3c-1.5,1.8-2.6,3.1-3.8,4.4
		c-11.3,12.9-25,22.6-40.1,30.5c-1.6,0.8-3.2,2.2-4,3.8c-7.7,13.6-15.5,27.1-22.8,40.9c-5.2,9.8-8,20.3-7.7,31.6
		c0.2,8.3-2.2,16-7.6,22.7c-6.9,8.6-13.8,17.1-20.4,26c-5.7,7.6-9.3,16.2-10.3,25.8c-0.7,6.9-4.9,12-10.8,15.2
		c-7.2,4-9.7,9.8-8.9,17.8c0.7,7-2.9,10.5-10.6,10.9c-0.8,0-1.6,0.1-2.4,0c-3.1-0.4-5.1,0.3-5.8,3.9c-0.3,1.4-2.1,3.1-3.6,3.6
		c-8.5,2.9-17.1,2.7-25.9,1.1c-3-0.5-3.7-2.2-2.5-4.6c2.6-5,5.2-10,8.1-14.8c9-14.9,15.8-30.7,19.4-47.8c1.5-7.2,1.2-14.4-0.7-21.3
		c-2.4-8.5,0.1-16,2.1-23.9c3.7-14.6,7.7-29.3,10.6-44.1c1.2-6.1-0.1-12.7-0.4-19c-0.2-4.5-0.9-9-1.2-13.6c-0.1-2.4-1-3.7-3.4-4.4
		c-5.5-1.7-10.9-3.6-16.3-5.7c-2-0.8-2.9-0.6-4,1.4c-2.9,5.2-6.4,10-12.3,12.1c-2.2,0.8-4.6,0.8-7,1c-8.8,0.8-17.6,1.9-26.4,2.3
		c-4.9,0.2-9.8-0.7-14.7-1.4c-10.6-1.6-21.4-2.5-31.7,0.7c-9.6,3-11.9,7.4-10.3,19.6c0.8,5.8,3.6,11.4,5,17.1
		c1.4,5.6,2.4,11.3,3.4,16.9c0.9,5.4,3.4,8,8.8,9.1c2.3,0.5,4.7,0.8,6.9,1.6c6,2.1,9,6.7,9.5,12.8c0.4,4.6,0.3,9.3,0.3,14
		c0,1.1-0.2,2.3-0.5,3.4c-1.3,4.7-3.7,5.8-8.1,3.7c-7.6-3.8-13.7-9.6-19.8-15.4c-10.4-9.8-16.1-21.9-19.2-35.6
		c-2.4-10.3-6.1-20.3-8.5-30.7c-1.2-5.4-1.6-11.3-0.9-16.8c1.4-12.3,10.2-18.4,21-21.9c9.5-3.1,19.5-4.9,28.7-8.9
		c7.7-3.3,14.6-8.5,21.5-13.4c4.9-3.5,9.9-6.3,16.4-6.8c-1.1-2.4-2.1-4.6-2.9-6.8c-4.9-12.8-7.1-26.2-6.9-39.9c0-4.2,0.2-8.4,0-12.6
		c-0.7-13.1,2.4-25.5,7.5-37.3c6.9-16,14.4-31.6,21.7-47.4c6.8-14.6,13.7-29.3,17-45.2c1-4.8,1.2-9.7,1.8-15.6
		c-6.9,5.5-14.2,7.8-21.7,9.3c-5.2,1.1-10.5,1.5-15.9,1.9c-5,0.4-9.1,2-12.2,6.2c-3,4.1-6.5,7.3-12.3,6.2c-0.9-0.2-2,0.3-3,0.6
		c-8.9,2.2-14.8-2.2-15.8-11.3c-0.3-2.3-1.8-4.5-3.2-6.6c-3.2-4.9-3.4-7.7,0.7-11.8c12.2-12,21.2-26.5,31.4-40.1
		c6.6-8.8,12.7-17.9,19.1-26.8c1.4-1.9,3.1-3.5,5.2-5.7c-3.4-0.7-6.3-1.2-9.1-1.8c0-0.3,0-0.6,0-0.8c1.7-0.3,3.3-0.6,5-0.9
		c-6.4-2.8-12.2-5.8-15.8-12.1c6.2,5.6,13.6,8.7,21.6,10.8c-14.6-9.4-25.7-20.4-20.5-39.9c0.5,0-0.3,9.3,0.6,13.1
		c0.9,3.8,3.4,11.1,14.6,17c1.1-2.7,1.7-6,3.6-8.1c4.9-5.2,11.8-6.4,18.5-8c-1.1,1.1-2.5,1.8-3.8,2.6c-1.4,0.8-2.8,1.5-4.1,2.4
		c-3.9,2.7-5.1,7.3-2.7,10.6c1.8,2.4,3.9,4.6,5.9,6.9c0.4-0.3-2.9-7.3-1-10.8c1.7-3,6.2-7.3,8.4-10c0.3,0.2-1.7,5-2.2,6.2
		c-1.6,4-0.7,7.4,3.2,9.4c2.6,1.3,5.4,2.1,8.2,3c1.2,0.4,2.6,0.7,3.7,0.3c6.6-2.6,13-5.6,19.7-8.1c3.1-1.2,6.5-1.7,9.7-2.5
		c0.1,0.3,0.3,0.6,0.4,0.9c-2.6,3.7-5.3,7.3-8.1,11.3c13.1-2.4,25.5-4.7,37.8-6.9c0.1,0.1,0.3,0.2,0.4,0.3c-4.4,2.7-8.7,5.3-13.1,8
		c14.8-2.7,29.3-4.6,44.2,1.5c-8.7-1.4-12.6-1.7-19.9-1.7c-7.5,0-18.2,2-25.4,4.3c1.6,0.3,3.2,0.5,4.8,0.3c17.2-1.6,34-0.3,50.3,5.6
		c11.1,4,21.3,9.6,28.3,19.6c4.7,6.7,8.1,13.7,3.1,21.9c-0.3,0.5-0.1,1.4,0.1,2c1.4,4.3,6.8,7,11,5.5c1.3-0.4,2.3-1.4,4.3-2.6
		c-2.4,8.1-7,12.9-14,15c-10.8,3.3-21.6,3.2-32.2-1.2c-0.5-0.2-1.2-0.2-2.4-0.5c0.7,0.9,0.9,1.2,1.3,1.5c0.6,0.5,1.2,1,1.9,1.4
		c8.1,5.5,17,5.9,26.1,3.3c7.2-2,14.2-4.9,21.8-4.5c6.2,0.3,11.7,2.5,15.9,7.3c-1-0.1-2-0.4-2.9-0.8c-7-3.3-11.4-2.1-15.5,4.5
		c-1.1,1.7-2,3.6-3.1,5.3c-3.5,5.2-7,10.5-10.8,15.5c-1.5,1.9-3.9,3.1-5.9,4.6c12.7-2.3,24.6-5.9,31.4-18.3
		c-1.7,9.9-8.3,15.8-15.8,21.3c-7.7,5.6-16,8.4-25.5,8.9c0.1,0.6,0.2,1.1,0.2,1.7c4.5,0.1,9.1,0.5,13.6,0.1
		c6.3-0.5,10.5-4.3,13.1-10.1c0.2,1.5,0.1,2.8-0.4,4c-3.9,10.9-16.1,17.5-27.7,15c-2-0.4-2.7,0.3-3.9,1.6c-2.8,3.4-5.8,6.6-8.9,9.6
		c-1.8,1.7-3.9,3.1-5.9,4.6c-4.8,3.7-3,9.6,1.4,11.6c6.6,3.1,13,1.6,18.9-1.6c4.3-2.4,7.8-6,11.9-9.2c-2.6,11.8-12.7,15.9-22.6,21.2
		c1.6,0,2.3,0.2,2.9,0c13.4-4.2,27.3-6,41.3-5.1c6.9,0.5,13.7,2.6,20.3,4.8c7.9,2.6,14.1,8,19.9,13.9c5.3,5.4,7.2,5.9,13,1.2
		c6.7-5.4,13.3-11.1,19.1-17.4c9.5-10.1,19.7-19.1,33.1-23.7c10-3.4,20.3-5.1,30.7-2.8c14.6,3.2,21.7,13.4,20.3,28.3
		c-0.5,5.7-1.2,11.5-2.2,17.2c-2.1,11.2-3,22.5-2.6,33.9c0.2,5.9,0.9,12,2.3,17.7C-113.4,309.7-106.4,313.5-97.2,311.4z
		 M-358.5,399.4c-2.8,0.4-5.6-1.7-6.8,2.9c-3.3,12.4-7,24.7-10.8,37c-2.5,7.9-4.9,16-8.3,23.5c-2.4,5.4-4.1,10.7-4.7,16.5
		c-0.8,7.8-0.2,16-4.4,23.1c-5.7,9.6-7.9,19.9-7.1,30.9c0.1,1.3,0,2.7,0,4.1c7.2-8.7,13.6-17.6,20-26.5c5.6-7.8,9.7-16.2,11.7-25.7
		c2.2-10.7,5-21.3,7.1-32.1c0.9-4.3,1-8.7,1-13.1C-360.8,426.6-364.5,412.9-358.5,399.4z M-290.8,113.6c2.4-3.3,0.6-8.9-4.7-14.9
		c-5.6-6.4-16.3-11.3-20.3-9.1C-302.1,92.1-294.8,101.1-290.8,113.6z"/>
	<polyline class="st2" points="-461.7,86.3 -556,6 -452.7,77.3 -460,86.3 	"/>
</g>
<circle class="st3" cx="297.8" cy="297.7" r="291.7"/>
<rect class="st4" width="600" height="600"/>
<polygon class="st5" points="18.6,18.6 300,300 581.4,18.6 "/>
<polygon class="st6" points="300,300 18.6,581.4 581.4,581.4 "/>
<polygon class="st7" points="581.4,18.6 581.4,581.4 300,300 "/>
<path class="st8" d="M516.8,302.6c-1.5-5.2-2.1-10.6-2.4-15.9c-0.5-10.2,0.5-20.3,2.7-30.4c1.1-5.1,1.7-10.3,2.3-15.4
	c1.4-13.4-5.9-22.5-20.9-25.4c-10.7-2.1-21.3-0.5-31.6,2.6c-13.8,4.1-24.2,12.1-34,21.2c-6,5.6-12.8,10.8-19.7,15.6
	c-6,4.2-7.9,3.8-13.4-1.1c-5.9-5.3-12.3-10.2-20.4-12.5c-6.8-1.9-13.9-3.9-20.9-4.3c-14.4-0.9-28.6,0.7-42.4,4.5c-0.6,0.2-1.3,0-3,0
	c10.2-4.7,20.6-8.4,23.2-19c-4.2,2.9-7.9,6.2-12.3,8.3c-6,2.9-12.6,4.2-19.4,1.5c-4.5-1.8-6.3-7.1-1.4-10.4c2-1.4,4.2-2.6,6.1-4.1
	c3.2-2.7,6.2-5.6,9.1-8.6c1.2-1.2,1.9-1.8,4-1.5c12,2.2,24.4-3.8,28.5-13.5c0.4-1.1,0.5-2.2,0.4-3.6c-2.7,5.2-7,8.6-13.5,9.1
	c-4.6,0.3-9.3,0-14-0.1c-0.1-0.5-0.2-1-0.2-1.5c9.7-0.4,18.3-2.9,26.2-7.9c7.8-4.9,14.5-10.2,16.3-19.1
	c-7.1,11.1-19.3,14.3-32.3,16.4c2-1.4,4.5-2.4,6-4.1c3.9-4.5,7.5-9.2,11.1-13.9c1.2-1.5,2.1-3.2,3.2-4.7c4.3-5.9,8.8-7,16-4
	c0.9,0.4,1.9,0.6,2.9,0.7c-4.3-4.3-10-6.3-16.3-6.6c-7.8-0.3-15,2.2-22.4,4c-9.3,2.3-18.4,1.9-26.8-3c-0.7-0.4-1.3-0.8-2-1.3
	c-0.3-0.2-0.6-0.6-1.3-1.3c1.3,0.2,1.9,0.2,2.5,0.4c10.9,4,22,4.1,33.1,1.1c7.2-1.9,11.9-6.2,14.4-13.5c-2,1.1-3.1,1.9-4.4,2.3
	c-4.3,1.3-9.8-1.1-11.3-4.9c-0.2-0.5-0.4-1.3-0.1-1.8c5.1-7.3,1.6-13.7-3.2-19.7c-7.2-8.9-17.6-14-29.1-17.6
	c-16.8-5.3-34.1-6.5-51.7-5c-1.6,0.1-3.3,0-4.9-0.3c7.4-2.1,18.4-3.9,26.1-3.9c7.5,0,11.6,0.3,20.5,1.5c-15.3-5.5-30.2-3.8-45.4-1.4
	c4.5-2.4,9-4.8,13.5-7.2c-0.1-0.1-0.3-0.2-0.4-0.3c-12.7,2-25.4,4.1-38.9,6.2c3-3.6,5.7-6.9,8.4-10.1c-0.1-0.3-0.3-0.6-0.4-0.8
	c-3.3,0.7-6.8,1.2-10,2.2c-6.8,2.3-13.4,4.9-20.2,7.3c-1.1,0.4-2.6,0.1-3.8-0.2c-2.9-0.8-5.8-1.5-8.4-2.7c-4-1.8-5-4.8-3.3-8.5
	c0.5-1.1,2.6-5.3,2.3-5.5c-2.3,2.4-6.9,6.2-8.7,8.9c-2,3.1,1.4,9.4,1,9.6c-2-2-4.3-4-6.1-6.1c-2.5-2.9-1.2-7,2.8-9.5
	c1.3-0.8,2.8-1.5,4.2-2.2c1.3-0.7,2.7-1.3,3.9-2.3c-6.9,1.4-13.9,2.5-19,7.1c-2,1.8-2.5,4.8-3.7,7.2c-11.5-5.3-14.1-11.9-15-15.3
	c-0.9-3.4-0.2-11.7-0.7-11.7c-5.3,17.4,6.1,27.4,21.1,35.8c-8.2-1.9-15.8-4.7-22.2-9.7c3.7,5.6,9.7,8.3,16.3,10.8
	c-1.7,0.3-3.4,0.5-5.1,0.8c0,0.2,0,0.4,0,0.6l-94-56.6l93.3,69.3c-4.9,6.1-9.8,12.2-14.9,18.2c-10.5,12.2-19.7,25.2-32.3,35.9
	c-4.2,3.6-4.1,6.2-0.7,10.6c1.4,1.8,3,3.8,3.3,5.9c1.1,8.2,7.1,12.1,16.2,10.1c1-0.2,2.1-0.7,3.1-0.5c5.9,1,9.6-1.9,12.6-5.5
	c3.1-3.8,7.3-5.3,12.5-5.6c5.5-0.4,11-0.8,16.3-1.7c7.7-1.4,15.2-3.3,22.3-8.3c-0.7,5.2-0.9,9.7-1.9,14
	c-3.3,14.3-10.4,27.4-17.4,40.6c-7.5,14.1-15.3,28.2-22.3,42.5c-5.2,10.6-8.4,21.7-7.7,33.5c0.2,3.8,0.1,7.5,0,11.3
	c-0.1,12.3,2,24.3,7.1,35.8c0.9,2,1.9,3.9,3,6.1c-6.7,0.5-11.8,3-16.8,6.1c-7.1,4.4-14.2,9-22.1,12c-9.4,3.5-19.7,5.2-29.5,7.9
	c-11.1,3.1-20.1,8.6-21.6,19.6c-0.7,4.9-0.3,10.2,0.9,15c2.4,9.3,6.2,18.2,8.7,27.5c3.3,12.3,9.1,23.1,19.8,31.9
	c6.3,5.2,12.5,10.4,20.3,13.8c4.5,1.9,6.9,0.9,8.3-3.3c0.3-1,0.5-2,0.5-3c0-4.2,0.1-8.4-0.3-12.5c-0.5-5.5-3.6-9.6-9.8-11.5
	c-2.3-0.7-4.7-1-7.1-1.4c-5.6-1-8.1-3.4-9-8.2c-1-5.1-2-10.2-3.5-15.2c-1.5-5.2-4.4-10.1-5.2-15.4c-1.7-10.9,0.7-14.8,10.6-17.5
	c10.6-2.9,21.6-2.1,32.6-0.6c5,0.7,10.1,1.4,15.1,1.3c9.1-0.3,18.1-1.3,27.1-2.1c2.4-0.2,4.9-0.2,7.2-0.9c6.1-1.9,9.7-6.2,12.7-10.9
	c1.1-1.8,2-2,4.1-1.3c5.5,1.9,11.1,3.6,16.7,5.1c2.4,0.7,3.3,1.8,3.5,4c0.3,4.1,1,8.1,1.2,12.2c0.4,5.7,1.7,11.6,0.4,17
	c-3,13.3-7.1,26.4-10.9,39.5c-2.1,7.1-4.7,13.9-2.2,21.5c2,6.1,2.3,12.7,0.7,19.1c-3.6,15.4-10.6,29.5-19.9,42.9
	c-3,4.3-5.8,8.8-8.4,13.3c-1.2,2.1-0.5,3.6,2.6,4.1c9,1.4,17.9,1.6,26.6-1c1.5-0.4,3.4-2,3.7-3.2c0.7-3.2,2.9-3.8,6-3.5
	c0.8,0.1,1.6,0,2.5,0c7.9-0.3,11.6-3.5,10.9-9.7c-0.8-7.1,1.7-12.4,9.1-15.9c6.1-2.9,10.4-7.4,11.1-13.7c1.1-8.6,4.8-16.3,10.6-23.1
	c6.8-7.9,13.9-15.6,21-23.3c5.5-6,8-12.9,7.8-20.4c-0.2-10.2,2.6-19.6,7.9-28.4C308,406,316,393.9,324,381.7
	c0.9-1.4,2.5-2.6,4.2-3.4c15.6-7.1,29.6-15.8,41.2-27.4c1.2-1.2,2.3-2.4,3.9-4c4.1,10.8,12,18.8,19.4,27.2
	c7,7.9,14.3,15.9,19.6,24.8c5.7,9.5,11.1,19.1,17.6,28.3c2.2,3,3.8,6.6,4.5,10.1c0.9,4.8,2.3,9.4,5.9,13.1
	c8.1,8.2,10.9,18.2,12.3,28.3c1.7,12.2,2.1,24.5,3.1,36.8c0.6,7.3,3.1,13.9,8.4,19.6c3.5,3.8,9.4,4.1,13.6,0.8
	c5.5-4.3,8-12.2,5.3-18.2c-1.8-3.9-4.7-7.5-6.9-11.2c-2.2-3.9-5.2-7.7-6.1-11.8c-1.7-7.2-2.4-14.7-3.1-22
	c-1.1-12.3-2.4-24.6-2.5-36.9c-0.1-6.9-1.8-12.8-6.5-18.2c-9-10.3-11.7-22.3-12-34.9c-0.1-7-0.2-14.1-0.3-21.1
	c-0.2-16.8-2.1-33.5-7-49.8c-3.8-12.8-9-25.1-17.2-36.4c-0.4-0.6-0.6-1.3-0.9-1.8c4.1,0,7.8,0.1,11.5,0c5.4-0.1,9.7-1.5,12.8-6
	c5-7.4,15.3-8.7,22.7-2c6.6,6,8.4,12.8,6.9,20.5c-2.6,12.6-5.7,25-8.5,37.6c-2.2,9.8-1.4,19.3,5.5,27.7c0.8,0.9,1.8,1.7,2.7,2.5
	c0.3-0.1,0.5-0.3,0.8-0.4c-6.2-9.5-3.1-18.6,0.9-27.7c1.9,7,3.4,13.9,5.8,20.6c2.5,6.9,10.1,15.3,14.5,16.8c-7.1-9-7.7-18.9-7.3-29
	c0.5-12.6,4.8-24.5,9.9-36.2c1.6-3.8,3.5-7.4,5.1-10.8c1.8,5.3,3.1,10.7,5.4,15.8c2.9,6.3,8.1,11,16.4,11.9
	c3.7,0.4,7.6,0.3,10.4-2.5C526.4,314.2,519.2,310.8,516.8,302.6z M332,121.6c5.4,5.4,7.3,10.4,4.8,13.4
	c-4.1-11.2-11.6-19.3-25.7-21.5C315.2,111.5,326.2,115.8,332,121.6z M167.5,96.8c-0.9,0.9-1.8,1.6-2.6,2.3l-6.4-3.9
	C161.4,95.8,164.2,96.3,167.5,96.8z M264.8,427.7c0,3.9-0.1,7.9-1,11.8c-2.2,9.6-5,19.1-7.3,28.7c-2,8.5-6.2,16.1-12,23
	c-6.6,8-13.1,16-20.6,23.8c0-1.2,0.1-2.4,0-3.6c-0.9-9.9,1.4-19.1,7.3-27.7c4.4-6.4,3.8-13.7,4.6-20.7c0.6-5.2,2.3-10,4.8-14.8
	c3.5-6.8,6-14,8.5-21.1c3.9-11,7.7-22,11.1-33.2c1.3-4.1,4.2-2.3,7-2.6C261.1,403.3,264.9,415.6,264.8,427.7z"/>
</svg>
